<mxfile host="app.diagrams.net" modified="2020-10-06T15:21:52.499Z" agent="5.0 (Windows)" etag="sh9ThLGn8CGSs06V83xh" version="13.7.6" type="github">
  <diagram id="cE2BqC8eJBNHnuxgr5oR" name="Page-1">
    <mxGraphModel dx="1077" dy="607" grid="1" gridSize="10" guides="1" tooltips="1" connect="1" arrows="1" fold="1" page="1" pageScale="1" pageWidth="850" pageHeight="1100" math="0" shadow="0">
      <root>
        <mxCell id="0" />
        <mxCell id="1" parent="0" />
        <mxCell id="zFzWclR1OpU2Bsfj1mEi-15" value="" style="rounded=0;whiteSpace=wrap;html=1;fillColor=none;dashed=1;" vertex="1" parent="1">
          <mxGeometry x="20" y="180" width="270" height="150" as="geometry" />
        </mxCell>
        <mxCell id="zFzWclR1OpU2Bsfj1mEi-4" style="edgeStyle=orthogonalEdgeStyle;rounded=0;orthogonalLoop=1;jettySize=auto;html=1;exitX=1;exitY=0.5;exitDx=0;exitDy=0;" edge="1" parent="1" source="zFzWclR1OpU2Bsfj1mEi-1" target="zFzWclR1OpU2Bsfj1mEi-3">
          <mxGeometry relative="1" as="geometry" />
        </mxCell>
        <mxCell id="zFzWclR1OpU2Bsfj1mEi-1" value="Part 1" style="html=1;" vertex="1" parent="1">
          <mxGeometry x="30" y="190" width="110" height="50" as="geometry" />
        </mxCell>
        <mxCell id="zFzWclR1OpU2Bsfj1mEi-5" style="edgeStyle=orthogonalEdgeStyle;rounded=0;orthogonalLoop=1;jettySize=auto;html=1;exitX=1;exitY=0.5;exitDx=0;exitDy=0;entryX=0;entryY=0.75;entryDx=0;entryDy=0;" edge="1" parent="1" source="zFzWclR1OpU2Bsfj1mEi-2" target="zFzWclR1OpU2Bsfj1mEi-3">
          <mxGeometry relative="1" as="geometry" />
        </mxCell>
        <mxCell id="zFzWclR1OpU2Bsfj1mEi-2" value="Part 2" style="html=1;" vertex="1" parent="1">
          <mxGeometry x="30" y="270" width="110" height="50" as="geometry" />
        </mxCell>
        <mxCell id="zFzWclR1OpU2Bsfj1mEi-7" style="edgeStyle=orthogonalEdgeStyle;rounded=0;orthogonalLoop=1;jettySize=auto;html=1;exitX=1;exitY=0.5;exitDx=0;exitDy=0;entryX=0;entryY=0.5;entryDx=0;entryDy=0;" edge="1" parent="1" source="zFzWclR1OpU2Bsfj1mEi-3" target="zFzWclR1OpU2Bsfj1mEi-6">
          <mxGeometry relative="1" as="geometry" />
        </mxCell>
        <mxCell id="zFzWclR1OpU2Bsfj1mEi-3" value="input" style="html=1;" vertex="1" parent="1">
          <mxGeometry x="170" y="220" width="110" height="50" as="geometry" />
        </mxCell>
        <mxCell id="zFzWclR1OpU2Bsfj1mEi-12" style="edgeStyle=orthogonalEdgeStyle;rounded=0;orthogonalLoop=1;jettySize=auto;html=1;exitX=1;exitY=0.5;exitDx=0;exitDy=0;" edge="1" parent="1" source="zFzWclR1OpU2Bsfj1mEi-6" target="zFzWclR1OpU2Bsfj1mEi-16">
          <mxGeometry relative="1" as="geometry">
            <mxPoint x="480" y="245" as="targetPoint" />
          </mxGeometry>
        </mxCell>
        <mxCell id="zFzWclR1OpU2Bsfj1mEi-6" value="Formulas" style="html=1;" vertex="1" parent="1">
          <mxGeometry x="315" y="220" width="110" height="50" as="geometry" />
        </mxCell>
        <mxCell id="zFzWclR1OpU2Bsfj1mEi-13" value="Pivot Chart" style="text;align=center;fontStyle=1;verticalAlign=middle;spacingLeft=3;spacingRight=3;strokeColor=none;rotatable=0;points=[[0,0.5],[1,0.5]];portConstraint=eastwest;" vertex="1" parent="1">
          <mxGeometry x="660" y="120" width="80" height="26" as="geometry" />
        </mxCell>
        <mxCell id="zFzWclR1OpU2Bsfj1mEi-14" value="Process" style="text;align=center;fontStyle=1;verticalAlign=middle;spacingLeft=3;spacingRight=3;strokeColor=none;rotatable=0;points=[[0,0.5],[1,0.5]];portConstraint=eastwest;" vertex="1" parent="1">
          <mxGeometry x="260" y="120" width="80" height="26" as="geometry" />
        </mxCell>
        <mxCell id="zFzWclR1OpU2Bsfj1mEi-19" style="edgeStyle=orthogonalEdgeStyle;rounded=0;orthogonalLoop=1;jettySize=auto;html=1;exitX=1;exitY=0.5;exitDx=0;exitDy=0;entryX=0;entryY=0.5;entryDx=0;entryDy=0;" edge="1" parent="1" source="zFzWclR1OpU2Bsfj1mEi-16" target="zFzWclR1OpU2Bsfj1mEi-17">
          <mxGeometry relative="1" as="geometry" />
        </mxCell>
        <mxCell id="zFzWclR1OpU2Bsfj1mEi-16" value="output" style="html=1;" vertex="1" parent="1">
          <mxGeometry x="465" y="220" width="110" height="50" as="geometry" />
        </mxCell>
        <mxCell id="zFzWclR1OpU2Bsfj1mEi-17" value="&lt;p style=&quot;margin: 0px ; margin-top: 6px ; text-align: center&quot;&gt;&lt;b&gt;Component&lt;/b&gt;&lt;/p&gt;&lt;hr&gt;&lt;p style=&quot;margin: 0px ; margin-left: 8px&quot;&gt;+ Attribute1: Fecha&lt;br&gt;+ Attribute2: Hora&lt;/p&gt;&lt;p style=&quot;margin: 0px ; margin-left: 8px&quot;&gt;+ Attribute3: Cell&lt;/p&gt;&lt;p style=&quot;margin: 0px ; margin-left: 8px&quot;&gt;+ Attribute4: Values (e.g. &lt;br&gt;&lt;/p&gt;&lt;p style=&quot;margin: 0px ; margin-left: 8px&quot;&gt;VoLTE MPD(min))&lt;/p&gt;&lt;p style=&quot;margin: 0px ; margin-left: 8px&quot;&gt;&lt;br&gt;&lt;/p&gt;" style="align=left;overflow=fill;html=1;dropTarget=0;" vertex="1" parent="1">
          <mxGeometry x="630" y="187.5" width="180" height="115" as="geometry" />
        </mxCell>
        <mxCell id="zFzWclR1OpU2Bsfj1mEi-18" value="" style="shape=component;jettyWidth=8;jettyHeight=4;" vertex="1" parent="zFzWclR1OpU2Bsfj1mEi-17">
          <mxGeometry x="1" width="20" height="20" relative="1" as="geometry">
            <mxPoint x="-24" y="4" as="offset" />
          </mxGeometry>
        </mxCell>
      </root>
    </mxGraphModel>
  </diagram>
</mxfile>
